<svg xmlns="http://www.w3.org/2000/svg" fill="#005F9E" width="32" height="32" viewBox="0 0 32 32">
  <g id="sketchup_logo" fill="inherit" fill-rule="evenodd">
    <path fill-rule="evenodd" d="M4.547 10.17v2.635l8.181 5.152v1.896l-4.91-2.829-2.453 1.427 7.363 4.21v1.92l-8.181-4.654s.036 1.53.412 2.373c.376.842 1.224 1.336 1.224 1.336l8.999 5.21V16.552L4.546 10.17z" clip-rule="evenodd"/>
    <path fill-rule="evenodd" d="M5.315 9.028l11.503 6.58v13.238l8.18-4.729s1.334-.849 1.908-1.922c.574-1.074.547-2.846.547-2.846V9.467l-8.416-4.843S17.335 4 16 4s-3.051.624-3.051.624L5.315 9.028zm4.958.025l4.09-2.403s.82-.39 1.636-.39c.818 0 1.64.375 1.64.375L25 10.884v8.465s-.077 1.212-.362 1.636c-.285.425-1.274 1.223-1.274 1.223l-4.09 2.373v-1.889l3.021-1.728s.675-.473.868-.89c.193-.416.2-1.16.2-1.16v-7.085L17.64 8.54s-.823-.457-1.64-.457c-.818 0-1.606.432-1.606.432l-2.485 1.45-1.636-.912zm7.016 2.115s-.732-.477-1.29-.477c-.556 0-1.326.477-1.326.477l-.31.188 4.91 2.834-.001 5.668.467-.264s.737-.415.953-.946c.216-.53.216-1.306.216-1.306v-4.096l-3.62-2.078z" clip-rule="evenodd"/>
  </g>
</svg>