<svg xmlns="http://www.w3.org/2000/svg" viewBox="0 0 24 24" fill="#4A4A4A" >
  <g id="tb_hidden_geometry">
    <path d="M12 3.375c-1.79 0-3.411.21-4.614.564-.602.177-1.099.388-1.474.649-.375.26-.662.606-.662 1.037v1.5H6V6.71c.365.238.825.436 1.386.601.32.094.676.176 1.051.25v1.064h.376V7.62c.898.15 1.91.24 3 .25V9h.374V7.87c1.09-.01 2.102-.1 3-.25v1.005h.376V7.56c.375-.073.73-.155 1.051-.249.561-.165 1.02-.363 1.386-.6v.414h.75v-1.5c0-.431-.287-.776-.662-1.037-.375-.261-.872-.472-1.474-.649-1.203-.354-2.824-.564-4.614-.564zm0 .75c1.73 0 3.298.21 4.402.535.552.162.988.355 1.258.543.27.188.34.335.34.422 0 .087-.07.234-.34.422-.27.188-.706.381-1.258.543-1.104.325-2.671.535-4.402.535-1.73 0-3.298-.21-4.402-.535-.552-.162-.988-.355-1.258-.543-.27-.188-.34-.335-.34-.422 0-.087.07-.234.34-.422.27-.188.706-.381 1.258-.543 1.104-.325 2.671-.535 4.402-.535zm-6.75 3.75v1.5H6v-1.5zm12.75 0v1.5h.75v-1.5zm-9.563 1.5v1.5h.376v-1.5zm6.75 0v1.5h.376v-1.5zm-3.374.375v1.5h.374v-1.5zm-6.563.375v1.5H6v-1.5zm12.75 0v1.5h.75v-1.5zm-9.563 1.5v1.5h.376v-1.5zm6.75 0v1.5h.376v-1.5zM11.813 12v1.5h.374V12zm-6.563.375v1.5H6v-1.5zm12.75 0v1.5h.75v-1.5zm-9.563 1.5v1.5h.376v-1.5zm6.75 0v1.5h.376v-1.5zm-3.374.375v1.5h.374v-1.5zm-6.563.375v1.5H6v-1.5zm12.75 0v1.5h.75v-1.5zm-9.563 1.5v1.5h.376v-1.5zm6.75 0v1.5h.376v-1.5zm-3.374.375V18h.374v-1.5zm-6.563.375v1.5c0 .431.287.776.662 1.037.375.261.872.472 1.474.649 1.203.354 2.824.564 4.614.564s3.411-.21 4.614-.564c.602-.177 1.099-.388 1.474-.649.375-.26.662-.606.662-1.037v-1.5H18v1.5c0 .087-.07.234-.34.422-.27.188-.706.381-1.258.543-.255.075-.54.142-.84.204v-1.169h-.374v1.235c-.88.154-1.9.25-3 .26v-1.12h-.375v1.12c-1.101-.01-2.122-.106-3-.26v-1.235h-.375v1.169a10.46 10.46 0 01-.84-.204c-.552-.162-.988-.355-1.258-.543-.27-.188-.34-.335-.34-.422v-1.5z" fill-rule="nonzero"/>
  </g>
</svg>
